<svg xmlns="http://www.w3.org/2000/svg" xmlns:xlink="http://www.w3.org/1999/xlink" width="500" zoomAndPan="magnify" viewBox="0 0 375 374.999991" height="500" preserveAspectRatio="xMidYMid meet" version="1.0"><defs><g/><clipPath id="2e0cb5281d"><rect x="0" width="201" y="0" height="220"/></clipPath></defs><g fill="#000000" fill-opacity="1"><g transform="translate(52.680183, 262.138884)"><g><path d="M 138.890625 -205.53125 L 138.890625 -183.703125 L 49.53125 -183.703125 L 49.53125 -114.40625 L 122.078125 -114.40625 L 122.078125 -92.59375 L 49.53125 -92.59375 L 49.53125 0 L 22.703125 0 L 22.703125 -205.53125 Z M 138.890625 -205.53125 "/></g></g></g><g transform="matrix(1, 0, 0, 1, 98, 155)"><g clip-path="url(#2e0cb5281d)"><g fill="#000000" fill-opacity="1"><g transform="translate(1.044272, 164.60794)"><g><path d="M 72.390625 -6.953125 C 60.421875 2.703125 47.164062 7.53125 32.625 7.53125 C 16.019531 7.53125 5.789062 2.894531 1.9375 -6.375 C 1.03125 -8.5625 0.578125 -11.101562 0.578125 -14 C 0.578125 -16.894531 2.054688 -20.015625 5.015625 -23.359375 C 9.648438 -28.640625 16.085938 -31.28125 24.328125 -31.28125 C 29.859375 -31.28125 35.421875 -30.28125 41.015625 -28.28125 C 46.617188 -26.289062 56.5625 -21.5 70.84375 -13.90625 C 77.28125 -20.082031 83.71875 -28.316406 90.15625 -38.609375 C 96.59375 -48.898438 102.15625 -58.835938 106.84375 -68.421875 C 111.539062 -78.015625 117.269531 -88.472656 124.03125 -99.796875 C 130.789062 -111.128906 137.515625 -120.523438 144.203125 -127.984375 C 129.785156 -136.609375 114.472656 -140.921875 98.265625 -140.921875 C 91.566406 -140.921875 84.742188 -140.210938 77.796875 -138.796875 C 57.847656 -134.554688 42.660156 -125.867188 32.234375 -112.734375 C 25.804688 -104.753906 22.59375 -97.160156 22.59375 -89.953125 C 22.59375 -80.171875 27.285156 -73.800781 36.671875 -70.84375 C 40.023438 -69.945312 42.921875 -69.5 45.359375 -69.5 C 47.804688 -69.5 50.539062 -69.882812 53.5625 -70.65625 C 56.59375 -71.425781 59.585938 -73.226562 62.546875 -76.0625 C 68.210938 -81.71875 71.238281 -86.992188 71.625 -91.890625 C 71.75 -93.046875 72.488281 -93.460938 73.84375 -93.140625 C 75.195312 -92.816406 75.742188 -91.820312 75.484375 -90.15625 C 74.191406 -80.757812 69.234375 -73.613281 60.609375 -68.71875 C 55.335938 -65.894531 50.0625 -64.484375 44.78125 -64.484375 L 34.75 -66.21875 C 24.96875 -69.5625 18.53125 -75.800781 15.4375 -84.9375 C 14.15625 -88.414062 13.515625 -91.890625 13.515625 -95.359375 C 13.515625 -102.441406 16.148438 -109.457031 21.421875 -116.40625 C 32.753906 -131.59375 52.832031 -141.3125 81.65625 -145.5625 C 87.320312 -146.332031 92.921875 -146.71875 98.453125 -146.71875 C 116.335938 -146.71875 133.390625 -142.46875 149.609375 -133.96875 C 154.628906 -139.757812 159.257812 -144.164062 163.5 -147.1875 C 167.75 -150.21875 171.160156 -151.734375 173.734375 -151.734375 C 175.148438 -151.734375 175.988281 -151.441406 176.25 -150.859375 C 176.507812 -150.285156 176.476562 -149.835938 176.15625 -149.515625 C 175.832031 -149.191406 175.414062 -149.03125 174.90625 -149.03125 C 172.71875 -149.03125 169.882812 -146.710938 166.40625 -142.078125 C 162.925781 -137.441406 160.09375 -133.128906 157.90625 -129.140625 C 171.675781 -120.003906 182.164062 -108.296875 189.375 -94.015625 C 195.164062 -82.554688 198.0625 -70.070312 198.0625 -56.5625 C 198.0625 -39.832031 194.070312 -26.515625 186.09375 -16.609375 C 179.53125 -8.492188 171.550781 -2.765625 162.15625 0.578125 C 150.957031 4.566406 139.890625 6.5625 128.953125 6.5625 C 106.816406 6.5625 87.960938 2.054688 72.390625 -6.953125 Z M 77.03125 -10.421875 C 90.019531 -2.703125 105.269531 1.15625 122.78125 1.15625 C 143.113281 1.15625 159.328125 -4.632812 171.421875 -16.21875 C 181.078125 -25.613281 185.90625 -38.613281 185.90625 -55.21875 C 185.90625 -67.050781 183.585938 -78.179688 178.953125 -88.609375 C 173.160156 -101.867188 164.601562 -112.9375 153.28125 -121.8125 C 149.550781 -116.019531 142.375 -104.335938 131.75 -86.765625 C 121.132812 -69.203125 112.160156 -54.953125 104.828125 -44.015625 C 97.492188 -33.078125 91.703125 -25.320312 87.453125 -20.75 C 83.203125 -16.1875 79.726562 -12.742188 77.03125 -10.421875 Z M 65.828125 -10.03125 C 50.773438 -17.238281 41.253906 -21.550781 37.265625 -22.96875 C 33.273438 -24.382812 29.378906 -25.09375 25.578125 -25.09375 C 21.785156 -25.09375 18.757812 -23.675781 16.5 -20.84375 C 14.25 -18.019531 13.125 -15.476562 13.125 -13.21875 C 13.125 -10.96875 13.640625 -8.8125 14.671875 -6.75 C 17.367188 -1.21875 22.90625 1.546875 31.28125 1.546875 C 43.632812 1.546875 55.148438 -2.3125 65.828125 -10.03125 Z M 65.828125 -10.03125 "/></g></g></g></g></g></svg>